# Blender v2.72 (sub 0) OBJ File: 'ladder2.blend'
# www.blender.org
o Cube.003
v -0.121207 -0.000001 0.021235
v -0.147724 0.026516 0.021235
v -0.174240 0.000000 0.021235
v -0.147724 -0.026517 0.021235
v -0.107949 -0.013259 0.000000
v -0.107949 0.013258 0.000000
v -0.147724 -0.053033 0.000000
v -0.147724 -0.053033 0.000000
v -0.187500 0.013258 0.000000
v -0.187500 -0.013259 0.000000
v -0.147724 0.053033 0.000000
v -0.147724 0.053033 0.000000
v 0.121207 -0.000001 0.021235
v 0.147724 -0.026517 0.021235
v 0.174240 0.000000 0.021235
v 0.147724 0.026516 0.021235
v 0.107949 -0.013259 0.000000
v 0.107949 0.013258 0.000000
v 0.147724 -0.053033 0.000000
v 0.147724 -0.053033 0.000000
v 0.187499 -0.013259 0.000000
v 0.187500 0.013258 0.000000
v 0.147724 0.053033 0.000000
v 0.147724 0.053033 0.000000
vn 0.000000 0.000000 1.000000
vn 0.848200 0.000000 0.529600
vn -0.848200 0.000000 0.529700
vn 0.530000 -0.530100 0.661900
vn 0.530000 0.530000 0.661900
vn -0.530000 -0.530000 0.661900
vn -0.530000 0.530000 0.661900
vn -0.848200 0.000000 0.529600
vn -0.530000 -0.530100 0.661900
vn 0.530000 -0.530000 0.661900
s off
f 1//1 2//1 3//1 4//1
f 6//2 1//2 5//2
f 7//1 8//1 4//1
f 3//3 9//3 10//3
f 11//1 12//1 2//1
f 1//4 4//4 7//4 5//4
f 2//5 1//5 6//5 12//5
f 4//6 3//6 10//6 8//6
f 3//7 2//7 11//7 9//7
f 13//1 14//1 15//1 16//1
f 17//8 13//8 18//8
f 19//1 14//1 20//1
f 15//2 21//2 22//2
f 23//1 16//1 24//1
f 13//9 17//9 19//9 14//9
f 18//7 13//7 16//7 24//7
f 14//10 20//10 21//10 15//10
f 15//5 22//5 23//5 16//5
